<?xml version="1.0" encoding="UTF-8" standalone="no"?>
<!-- Created with Inkscape (http://www.inkscape.org/) -->

<svg
   xmlns:dc="http://purl.org/dc/elements/1.1/"
   xmlns:cc="http://creativecommons.org/ns#"
   xmlns:rdf="http://www.w3.org/1999/02/22-rdf-syntax-ns#"
   xmlns:svg="http://www.w3.org/2000/svg"
   xmlns="http://www.w3.org/2000/svg"
   xmlns:sodipodi="http://sodipodi.sourceforge.net/DTD/sodipodi-0.dtd"
   xmlns:inkscape="http://www.inkscape.org/namespaces/inkscape"
   width="40mm"
   height="43mm"
   viewBox="0 0 40 43"
   version="1.1"
   id="svg1492"
   inkscape:version="0.92.5 (2060ec1f9f, 2020-04-08)"
   sodipodi:docname="wheel_logo_black.svg">
  <defs
     id="defs1486" />
  <sodipodi:namedview
     id="base"
     pagecolor="#ffffff"
     bordercolor="#666666"
     borderopacity="1.0"
     inkscape:pageopacity="0.0"
     inkscape:pageshadow="2"
     inkscape:zoom="1.4"
     inkscape:cx="-323.57143"
     inkscape:cy="227.86258"
     inkscape:document-units="mm"
     inkscape:current-layer="layer1"
     showgrid="false"
     inkscape:window-width="3840"
     inkscape:window-height="1882"
     inkscape:window-x="0"
     inkscape:window-y="68"
     inkscape:window-maximized="1" />
  <metadata
     id="metadata1489">
    <rdf:RDF>
      <cc:Work
         rdf:about="">
        <dc:format>image/svg+xml</dc:format>
        <dc:type
           rdf:resource="http://purl.org/dc/dcmitype/StillImage" />
        <dc:title />
      </cc:Work>
    </rdf:RDF>
  </metadata>
  <g
     inkscape:label="Layer 1"
     inkscape:groupmode="layer"
     id="layer1"
     transform="translate(0,-254)">
    <path
       style="fill:#000000;stroke-width:0.11319649;fill-opacity:1"
       d="M 17.881386,292.67485 C 11.733916,291.8633 6.3458179,287.1794 4.6979079,281.19977 c -1.67564,-5.60719 -0.0801,-12.06196 4.119769,-16.16168 4.1868691,-4.23338 10.8346491,-5.81382 16.4459991,-3.74962 6.20565,2.08156 10.625637,8.29524 10.745649,14.81169 0.284956,6.6217 -3.916003,13.16945 -10.106619,15.5788 -2.52566,1.04526 -5.32062,1.29106 -8.02132,0.99589 z m 4.39746,-3.43821 c 5.0726,-0.79642 9.382049,-4.86055 10.515376,-9.86239 0.526402,-2.69955 0.346901,-5.6093 -0.893665,-8.10133 -2.160511,-4.84688 -7.515621,-7.92366 -12.785371,-7.47318 -5.85605,0.30596 -11.2389385,4.98845 -11.9961281,10.86905 -0.82463,4.92247 1.604059,10.12539 5.8573481,12.71537 2.7247,1.76017 6.11692,2.35943 9.30244,1.85248 z m -3.38563,-1.54506 c -1.18876,-0.26336 -3.03372,-0.32355 -3.70669,-1.22986 1.17709,-1.54051 2.4505,-3.26612 4.35802,-3.91102 1.74993,-0.303 3.08061,1.25442 4.16703,2.40488 0.19995,0.52628 1.87682,1.60589 0.88183,1.86613 -1.79062,0.75518 -3.7668,1.05127 -5.70019,0.86987 z m -7.41529,-3.76793 c -2.2270394,-2.46999 -3.1363788,-5.94209 -2.6343591,-9.20371 1.9354791,0.72583 4.0656891,1.44875 5.3766291,3.13123 0.97655,1.70093 -0.1795,3.63636 -1.03616,5.13252 -0.50841,0.54169 -0.93628,2.3436 -1.70611,0.93996 z m 15.76355,-0.35171 c -1.03496,-1.65835 -2.38449,-3.75774 -1.41291,-5.72802 1.21049,-1.55855 3.18066,-2.30547 4.98955,-2.9311 1.059177,0.47328 0.355554,2.79442 0.31175,3.93821 -0.49333,2.13223 -1.5183,4.20902 -3.18411,5.66119 -0.28252,-0.27014 -0.48,-0.62267 -0.70428,-0.94028 z m -10.83408,-3.42966 c -1.45311,-1.81348 2.49392,-1.7898 1.03675,0 -0.29474,0.3302 -0.74202,0.33017 -1.03675,0 z m 6.17508,0.15214 c -1.6492,-0.98357 1.30653,-2.56178 1.157,-0.60418 -0.13826,0.43961 -0.68627,0.91022 -1.157,0.60418 z m -3.68926,-1.01026 c -1.84499,-0.83799 -2.29537,-3.60408 -0.68363,-4.89085 1.37954,-1.43269 3.99739,-0.56433 4.48113,1.30043 0.62941,1.85464 -0.96502,4.10006 -2.97938,3.78449 -0.27961,-0.0249 -0.5612,-0.077 -0.81812,-0.19407 z m -2.338,-4.87051 c -1.61966,-1.04288 1.40939,-2.59746 1.17001,-0.52369 -0.10528,0.50382 -0.71851,0.81352 -1.17001,0.52369 z m 5.79155,-0.18946 c -1.21887,-1.50268 2.06474,-1.8832 1.29569,-0.17772 -0.23564,0.4391 -0.96045,0.59563 -1.29569,0.17772 z m -9.69314,-2.07849 c -1.31004,-0.22082 -3.5917294,-0.63188 -1.79412,-2.08494 1.76357,-2.3381 4.43503,-4.11697 7.37548,-4.43257 -0.0445,1.93641 -0.0766,4.0649 -1.17589,5.74006 -1.02612,1.32847 -2.96525,0.88953 -4.40547,0.77745 z m 11.45443,0.0217 c -1.71046,-0.6718 -2.0355,-2.79212 -2.17026,-4.40711 -0.0434,-0.73067 -0.0667,-1.46235 -0.0997,-2.19353 3.40531,0.50281 6.44462,2.70973 8.14815,5.67047 -1.13636,0.91043 -3.27837,0.97917 -4.85227,1.06619 -0.3449,-0.01 -0.69572,-0.0241 -1.02592,-0.13602 z"
       id="path1446"
       inkscape:connector-curvature="0" />
  </g>
</svg>
